<svg id="图层_1" data-name="图层 1" xmlns="http://www.w3.org/2000/svg" xmlns:xlink="http://www.w3.org/1999/xlink" viewBox="0 0 49 30"><defs><linearGradient id="未命名的渐变" x1="-33.17" y1="77.14" x2="-33.17" y2="76.27" gradientTransform="translate(1114 303) rotate(90) scale(9 14)" gradientUnits="userSpaceOnUse"><stop offset="0" stop-color="#828282"/><stop offset="0.34" stop-color="#c9c9c9"/><stop offset="0.63" stop-color="#c3c3c3"/><stop offset="1" stop-color="#6d6d6d"/></linearGradient><linearGradient id="未命名的渐变_2" x1="-33.17" y1="77.14" x2="-33.17" y2="76.27" gradientTransform="translate(1114 323) rotate(90) scale(9 14)" xlink:href="#未命名的渐变"/><linearGradient id="未命名的渐变_3" x1="-35.3" y1="77.88" x2="-35.3" y2="77" gradientTransform="translate(1511 544) rotate(90) scale(15 19)" xlink:href="#未命名的渐变"/><linearGradient id="未命名的渐变_4" x1="-32" y1="75.93" x2="-32" y2="75.06" gradientTransform="matrix(6, 0, 0, -12, 209, 921)" xlink:href="#未命名的渐变"/><linearGradient id="未命名的渐变_5" x1="-32" y1="76" x2="-32" y2="75" gradientTransform="matrix(6, 0, 0, -12, 219, 921)" gradientUnits="userSpaceOnUse"><stop offset="0" stop-color="#24286b"/><stop offset="0.26" stop-color="#474c8a"/><stop offset="0.49" stop-color="#656ba4"/><stop offset="1" stop-color="#242d6f"/></linearGradient><linearGradient id="未命名的渐变_6" x1="-32.93" y1="76.31" x2="-32.93" y2="75.31" gradientTransform="matrix(7, 0, 0, -13, 257.5, 1000.5)" gradientUnits="userSpaceOnUse"><stop offset="0" stop-color="#121846"/><stop offset="0.51" stop-color="#333"/><stop offset="1" stop-color="#1a1a1a"/></linearGradient><linearGradient id="未命名的渐变_7" x1="-32" y1="77.18" x2="-32" y2="76.18" gradientTransform="matrix(6, 0, 0, -17, 214, 1318)" gradientUnits="userSpaceOnUse"><stop offset="0" stop-color="#1e1e1e"/><stop offset="0.38" stop-color="#7c7c7c"/><stop offset="0.65" stop-color="#535353"/><stop offset="1" stop-color="#1d1d1d"/></linearGradient><linearGradient id="未命名的渐变_8" x1="-32.93" y1="77.33" x2="-32.93" y2="76.33" gradientTransform="matrix(7, 0, 0, -18, 252.5, 1397.5)" gradientUnits="userSpaceOnUse"><stop offset="0"/><stop offset="0.51" stop-color="#333"/><stop offset="1" stop-color="#1a1a1a"/></linearGradient><linearGradient id="未命名的渐变_9" x1="-25.25" y1="72.08" x2="-25.25" y2="71.08" gradientTransform="matrix(2.94, 0, 0, -6.06, 102.76, 448.67)" gradientUnits="userSpaceOnUse"><stop offset="0" stop-color="#8488ba"/><stop offset="0.5" stop-color="#b5b9e6"/><stop offset="1" stop-color="#7479c2"/></linearGradient><linearGradient id="未命名的渐变_10" x1="-35.71" y1="78.29" x2="-35.71" y2="77.29" gradientTransform="matrix(14, 0, 0, -28, 508, 2193)" xlink:href="#未命名的渐变_5"/><linearGradient id="未命名的渐变_11" x1="-35.9" y1="78.34" x2="-35.9" y2="77.34" gradientTransform="matrix(15, 0, 0, -29, 546.5, 2272.5)" xlink:href="#未命名的渐变_6"/><linearGradient id="未命名的渐变_12" x1="-32" y1="77.18" x2="-32" y2="76.18" gradientTransform="matrix(6, 0, 0, -17, 200, 1318)" gradientUnits="userSpaceOnUse"><stop offset="0" stop-color="#dee0fa"/><stop offset="0.5" stop-color="#b5b9e6"/><stop offset="1" stop-color="#d0d3ff"/></linearGradient></defs><title>元件2</title><g id="Page-1"><g id="Group-16-Copy-4"><g id="Group-6"><g id="Rectangle-16-Copy"><rect id="path-2" x="33" width="14" height="9" rx="1" ry="1" fill="url(#未命名的渐变)"/><rect x="33.5" y="0.5" width="13" height="8" rx="1" ry="1" fill="none" stroke="#4d4d4d"/></g><g id="Rectangle-16-Copy-2"><rect id="path-3" x="33" y="20" width="14" height="9" rx="1" ry="1" fill="url(#未命名的渐变_2)"/><rect x="33.5" y="20.5" width="13" height="8" rx="1" ry="1" fill="none" stroke="#4d4d4d"/></g><g id="Rectangle-16"><rect id="path-4" x="30" y="7" width="19" height="15" rx="1" ry="1" fill="url(#未命名的渐变_3)"/><rect x="30.5" y="7.5" width="18" height="14" rx="1" ry="1" fill="none" stroke="#4d4d4d"/></g></g><g id="Rectangle-18-Copy-2"><rect id="path-5" x="14" y="9" width="6" height="12" fill="url(#未命名的渐变_4)"/><rect x="14.5" y="9.5" width="5" height="11" fill="none" stroke="#4d4d4d"/></g><g id="Rectangle-18-Copy-4"><rect id="path-8" x="24" y="9" width="6" height="12" fill="url(#未命名的渐变_5)"/><rect x="23.5" y="8.5" width="7" height="13" fill="none" stroke="url(#未命名的渐变_6)"/></g><g id="Rectangle-18-Copy-3"><rect id="path-11" x="19" y="6" width="6" height="17" fill="url(#未命名的渐变_7)"/><rect x="18.5" y="5.5" width="7" height="18" fill="none" stroke="url(#未命名的渐变_8)"/></g><polygon id="Path-6" points="29.94 12 27 13.02 27 17.03 29.94 18.06 29.94 12" fill="url(#未命名的渐变_9)"/><g id="Rectangle-18-Copy"><rect id="path-13" x="1" y="1" width="14" height="28" fill="url(#未命名的渐变_10)"/><rect x="0.5" y="0.5" width="15" height="29" fill="none" stroke="url(#未命名的渐变_11)"/></g><rect id="Rectangle-18" x="5" y="6" width="6" height="17" fill="url(#未命名的渐变_12)"/></g></g></svg>