<svg data-name="图层 1" xmlns="http://www.w3.org/2000/svg" xmlns:xlink="http://www.w3.org/1999/xlink" viewBox="0 0 61.49 156.5">
    <defs>
        <linearGradient id="rs-fengji_a" x1="-686.81" y1="454.24" x2="-686" y2="454.24" gradientTransform="matrix(25.44 0 0 -38 17481.42 17326)" gradientUnits="userSpaceOnUse">
            <stop offset="0" stop-color="#9b9b9b"/>
            <stop offset=".34" stop-color="#d9d9d9"/>
            <stop offset=".52" stop-color="#f3f3f3"/>
            <stop offset=".69" stop-color="#d9d9d9"/>
            <stop offset="1" stop-color="#a2a2a2"/>
        </linearGradient>
        <radialGradient id="rs-fengji_c" data-name="未命名的渐变 2" cx="-709.66" cy="474.37" r=".83" gradientTransform="matrix(0 57 57 0 -27006.89 40549.14)" gradientUnits="userSpaceOnUse">
            <stop offset="0" stop-color="#939393"/>
            <stop offset="1" stop-color="#262626"/>
        </radialGradient>
        <linearGradient id="rs-fengji_d" data-name="未命名的渐变 3" x1="-701.96" y1="458" x2="-701.96" y2="457" gradientTransform="matrix(57 0 0 -69 40044 31689)" gradientUnits="userSpaceOnUse">
            <stop offset="0" stop-color="#a8a8a8"/>
            <stop offset="1" stop-color="#6f6f6f"/>
        </linearGradient>
        <linearGradient id="rs-fengji_e" data-name="未命名的渐变 4" x1="-670.23" y1="455.5" x2="-669.42" y2="455.5" gradientTransform="matrix(16 0 0 -46 10736 20976)" xlink:href="#rs-fengji_a"/>
        <linearGradient id="rs-fengji_f" data-name="未命名的渐变 5" x1="-694.64" y1="454.33" x2="-694.64" y2="453.44" gradientTransform="matrix(36 0 0 -36 25040 16465)" gradientUnits="userSpaceOnUse">
            <stop offset="0" stop-color="#464646"/>
            <stop offset=".58" stop-color="#585858"/>
            <stop offset="1" stop-color="#262626"/>
        </linearGradient>
        <linearGradient id="rs-fengji_g" data-name="未命名的渐变 7" x1="-694.98" y1="422.07" x2="-694.28" y2="422.07" gradientTransform="matrix(36 0 0 -7 25025 3040)" xlink:href="#rs-fengji_a"/>
        <linearGradient id="rs-fengji_h" data-name="未命名的渐变 8" x1="-677.67" y1="475.8" x2="-676.83" y2="474.99" gradientTransform="matrix(13.9 12.96 14.13 -15.15 2727.57 16101.14)" gradientUnits="userSpaceOnUse">
            <stop offset="0" stop-color="#939393"/>
            <stop offset="1" stop-color="#212121"/>
        </linearGradient>
        <linearGradient id="rs-fengji_b" data-name="未命名的渐变 9" x1="-687.75" y1="364.15" x2="-687.75" y2="362.33" gradientTransform="matrix(20 0 0 -5 13774 1862)" gradientUnits="userSpaceOnUse">
            <stop offset="0" stop-color="#9b9b9b"/>
            <stop offset=".43" stop-color="#d9d9d9"/>
            <stop offset="1" stop-color="#a2a2a2"/>
        </linearGradient>
        <linearGradient id="rs-fengji_i" data-name="未命名的渐变 10" y1="393.15" y2="391.33" gradientTransform="matrix(20 0 0 -5 13774 1978)" xlink:href="#rs-fengji_b"/>
    </defs>
    <g data-name="风机 循环">
        <path d="M22.1 46h4a1.3 1.3 0 0 1 1.3 1.2l4.1 35.6a1 1 0 0 1-1.1 1.2H19.7a1.78 1.78 0 0 1-1-.4 1.16 1.16 0 0 1-1 .4H7.1A1.08 1.08 0 0 1 6 82.8l4.1-35.6a1.38 1.38 0 0 1 1.3-1.2z" fill="url(#rs-fengji_a)"/>
        <path d="M33 99a28.5 28.5 0 1 1-28.9 31H4V87h29z" fill="url(#rs-fengji_c)" stroke="url(#rs-fengji_d)"/>
        <path fill="url(#rs-fengji_e)" d="M11 0h16v46H11z"/>
        <circle cx="33" cy="127" r="18" fill="url(#rs-fengji_f)"/>
        <g fill="#e9be00">
            <circle cx="33" cy="127" r="14"/>
            <circle cx="33" cy="127" r="14"/>
        </g>
        <path fill="url(#rs-fengji_g)" d="M0 82h36v7H0z"/>
        <path d="M31.5 125.4a1.63 1.63 0 0 0 2.4 2.2 1.8 1.8 0 0 0 .4-1.6 1.67 1.67 0 0 0-1.2-1.1 1.84 1.84 0 0 0-1.6.5zm-1.5-.7a7.25 7.25 0 0 0-5.2-.4c-5.1 1.3-2.8 6.3-1.1 7 3.3 1.4 4.2-2.2 6.2-3.2a3.22 3.22 0 0 1 .1-3.4zm2.9-1.4a3.18 3.18 0 0 1 2 .8 4.44 4.44 0 0 1 .8 1.1 7.49 7.49 0 0 0 3.3-4.1c1.8-4.9-3.6-5.8-5.2-4.7-3.1 1.9-.6 4.6-.9 6.9zm7.9 9.2c-.1-3.6-3.7-2.8-5.5-4.2-.1.1-.2.3-.3.4a3.28 3.28 0 0 1-2.8 1 7.28 7.28 0 0 0 1.8 4.9c3.3 4 6.9-.2 6.8-2.1z" fill="url(#rs-fengji_h)"/>
        <path fill="#cacaca" d="M0 82h36v1H0z"/>
        <path fill="url(#rs-fengji_b)" d="M9 43h20v5H9z"/>
        <path fill="#8b8b8b" d="M9 48h20v1H9z"/>
        <path fill="#b3b3b3" d="M9 43h20v1H9z"/>
        <g>
            <path fill="url(#rs-fengji_i)" d="M9 14h20v5H9z"/>
            <path fill="#8b8b8b" d="M9 19h20v1H9z"/>
            <path fill="#b3b3b3" d="M9 14h20v1H9z"/>
        </g>
    </g>
</svg>
