<svg data-name="图层 1" xmlns="http://www.w3.org/2000/svg" xmlns:xlink="http://www.w3.org/1999/xlink" viewBox="0 0 44 32">
    <defs>
        <linearGradient id="rs-tube_a" x1="-676.62" y1="-275.69" x2="-675.65" y2="-275.69" gradientTransform="matrix(0 17 16 0 4419 11510)" gradientUnits="userSpaceOnUse">
            <stop offset="0" stop-color="#1e1e1e"/>
            <stop offset=".16" stop-color="#929292"/>
            <stop offset=".44" stop-color="#2a2a2a"/>
            <stop offset=".58"/>
            <stop offset=".81" stop-color="#959595"/>
            <stop offset=".9" stop-color="#a8a8a8"/>
            <stop offset="1" stop-color="#1d1d1d"/>
        </linearGradient>
        <linearGradient id="rs-tube_b" data-name="未命名的渐变 2" x1="-688.04" y1="-291.46" x2="-687.06" y2="-291.46" gradientTransform="matrix(0 32 25 0 7318 22018)" xlink:href="#rs-tube_a"/>
        <linearGradient id="rs-tube_c" data-name="未命名的渐变 3" x1="-687.56" y1="-232.74" x2="-687.56" y2="-231.2" gradientTransform="matrix(0 32 8 0 1871 22018)" gradientUnits="userSpaceOnUse">
            <stop offset="0" stop-color="#1e1e1e"/>
            <stop offset=".16" stop-color="#929292"/>
            <stop offset="1"/>
        </linearGradient>
    </defs>
    <path d="M0 8v15a.94.94 0 0 0 1 1h14a.94.94 0 0 0 1-1V8a.94.94 0 0 0-1-1H1a.94.94 0 0 0-1 1z" fill="url(#rs-tube_a)"/>
    <path d="M19 0v32h24a.94.94 0 0 0 1-1V1a.94.94 0 0 0-1-1z" fill="url(#rs-tube_b)"/>
    <path d="M20 11V1.2c0-.9-.3-1.4-.6-1.1L12.6 6a3.86 3.86 0 0 0-.6 2.2v15.6a3.86 3.86 0 0 0 .6 2.2l6.7 5.9c.4.3.6-.2.6-1.1V11z" fill="url(#rs-tube_c)"/>
</svg>
